{
	"asset":{
		"generator":"Khronos glTF Blender I/O v4.3.47",
		"version":"2.0"
	},
	"scene":0,
	"scenes":[
		{
			"name":"Scene",
			"nodes":[
				0,
				1,
				2
			]
		}
	],
	"nodes":[
		{
			"mesh":0,
			"name":"Plane",
			"scale":[
				8.655805587768555,
				8.655805587768555,
				8.655805587768555
			],
			"translation":[
				-12.519160270690918,
				-0.9884560704231262,
				6.378164291381836
			]
		},
		{
			"mesh":1,
			"name":"Plane.001",
			"scale":[
				8.655805587768555,
				8.655805587768555,
				8.655805587768555
			],
			"translation":[
				13.656875610351562,
				9.702261924743652,
				-9.734016418457031
			]
		},
		{
			"mesh":2,
			"name":"Plane.002",
			"scale":[
				8.655805587768555,
				8.655805587768555,
				8.655805587768555
			],
			"translation":[
				0.6422596573829651,
				9.499665260314941,
				-12.124845504760742
			]
		}
	],
	"materials":[
		{
			"doubleSided":true,
			"name":"Dented Metal"
		}
	],
	"meshes":[
		{
			"name":"Plane",
			"primitives":[
				{
					"attributes":{
						"POSITION":0,
						"NORMAL":1,
						"TEXCOORD_0":2
					},
					"indices":3,
					"material":0
				}
			]
		},
		{
			"name":"Plane.001",
			"primitives":[
				{
					"attributes":{
						"POSITION":4,
						"NORMAL":5,
						"TEXCOORD_0":6
					},
					"indices":7,
					"material":0
				}
			]
		},
		{
			"name":"Plane.002",
			"primitives":[
				{
					"attributes":{
						"POSITION":8,
						"NORMAL":9,
						"TEXCOORD_0":10
					},
					"indices":11,
					"material":0
				}
			]
		}
	],
	"accessors":[
		{
			"bufferView":0,
			"componentType":5126,
			"count":1900,
			"max":[
				3.3123109340667725,
				7.21211576461792,
				0.30000007152557373
			],
			"min":[
				-0.30000001192092896,
				1.2306187152862549,
				-3.0568740367889404
			],
			"type":"VEC3"
		},
		{
			"bufferView":1,
			"componentType":5126,
			"count":1900,
			"type":"VEC3"
		},
		{
			"bufferView":2,
			"componentType":5126,
			"count":1900,
			"type":"VEC2"
		},
		{
			"bufferView":3,
			"componentType":5123,
			"count":10944,
			"type":"SCALAR"
		},
		{
			"bufferView":4,
			"componentType":5126,
			"count":1500,
			"max":[
				0.30000007152557373,
				5.959638595581055,
				3.123225688934326
			],
			"min":[
				-2.499662399291992,
				-0.00012757052900269628,
				0.0986594557762146
			],
			"type":"VEC3"
		},
		{
			"bufferView":5,
			"componentType":5126,
			"count":1500,
			"type":"VEC3"
		},
		{
			"bufferView":6,
			"componentType":5126,
			"count":1500,
			"type":"VEC2"
		},
		{
			"bufferView":7,
			"componentType":5123,
			"count":8640,
			"type":"SCALAR"
		},
		{
			"bufferView":8,
			"componentType":5126,
			"count":1300,
			"max":[
				1.2073487043380737,
				5.957316875457764,
				0.6939695477485657
			],
			"min":[
				-0.6901471614837646,
				-3.859560820274055e-05,
				-1.860803484916687
			],
			"type":"VEC3"
		},
		{
			"bufferView":9,
			"componentType":5126,
			"count":1300,
			"type":"VEC3"
		},
		{
			"bufferView":10,
			"componentType":5126,
			"count":1300,
			"type":"VEC2"
		},
		{
			"bufferView":11,
			"componentType":5123,
			"count":7488,
			"type":"SCALAR"
		}
	],
	"bufferViews":[
		{
			"buffer":0,
			"byteLength":22800,
			"byteOffset":0,
			"target":34962
		},
		{
			"buffer":0,
			"byteLength":22800,
			"byteOffset":22800,
			"target":34962
		},
		{
			"buffer":0,
			"byteLength":15200,
			"byteOffset":45600,
			"target":34962
		},
		{
			"buffer":0,
			"byteLength":21888,
			"byteOffset":60800,
			"target":34963
		},
		{
			"buffer":0,
			"byteLength":18000,
			"byteOffset":82688,
			"target":34962
		},
		{
			"buffer":0,
			"byteLength":18000,
			"byteOffset":100688,
			"target":34962
		},
		{
			"buffer":0,
			"byteLength":12000,
			"byteOffset":118688,
			"target":34962
		},
		{
			"buffer":0,
			"byteLength":17280,
			"byteOffset":130688,
			"target":34963
		},
		{
			"buffer":0,
			"byteLength":15600,
			"byteOffset":147968,
			"target":34962
		},
		{
			"buffer":0,
			"byteLength":15600,
			"byteOffset":163568,
			"target":34962
		},
		{
			"buffer":0,
			"byteLength":10400,
			"byteOffset":179168,
			"target":34962
		},
		{
			"buffer":0,
			"byteLength":14976,
			"byteOffset":189568,
			"target":34963
		}
	],
	"buffers":[
		{
			"byteLength":204544,
			"uri":"pipes3.bin"
		}
	]
}
